<svg xmlns="http://www.w3.org/2000/svg" width="400" height="320" viewBox="0 0 400 320">
  <rect width="400" height="320" rx="12" fill="#0d1117"/>
  
  <g stroke="#ffd700" stroke-width="2" fill="none" opacity="0.85">
    <line x1="30" y1="60" x2="110" y2="60" stroke-dasharray="4,2">
      <animate attributeName="stroke-dashoffset" values="20;0" dur="2s" repeatCount="indefinite"/>
    </line>
    <line x1="110" y1="60" x2="110" y2="105" stroke-dasharray="4,2">
      <animate attributeName="stroke-dashoffset" values="15;0" dur="1.5s" repeatCount="indefinite"/>
    </line>
    <line x1="110" y1="105" x2="180" y2="155" stroke-dasharray="4,2">
      <animate attributeName="stroke-dashoffset" values="20;0" dur="1.8s" repeatCount="indefinite"/>
    </line>
    <line x1="130" y1="90" x2="260" y2="90" stroke-dasharray="4,2">
      <animate attributeName="stroke-dashoffset" values="30;0" dur="2.5s" repeatCount="indefinite"/>
    </line>
    <line x1="260" y1="90" x2="260" y2="160" stroke-dasharray="4,2">
      <animate attributeName="stroke-dashoffset" values="20;0" dur="2s" repeatCount="indefinite"/>
    </line>
    <line x1="55" y1="175" x2="180" y2="175" stroke-dasharray="4,2">
      <animate attributeName="stroke-dashoffset" values="25;0" dur="2.2s" repeatCount="indefinite"/>
    </line>
    <line x1="180" y1="175" x2="180" y2="220" stroke-dasharray="4,2">
      <animate attributeName="stroke-dashoffset" values="15;0" dur="1.5s" repeatCount="indefinite"/>
    </line>
    <line x1="180" y1="220" x2="340" y2="220" stroke-dasharray="4,2">
      <animate attributeName="stroke-dashoffset" values="40;0" dur="3s" repeatCount="indefinite"/>
    </line>
    <line x1="260" y1="160" x2="220" y2="220"/>
    <line x1="30" y1="175" x2="30" y2="245" stroke-dasharray="4,2">
      <animate attributeName="stroke-dashoffset" values="20;0" dur="2s" repeatCount="indefinite"/>
    </line>
    <line x1="340" y1="60" x2="340" y2="220" stroke-dasharray="4,2">
      <animate attributeName="stroke-dashoffset" values="20;0" dur="2.5s" repeatCount="indefinite"/>
    </line>
  </g>
  
  <g fill="#ffd700">
    <circle cx="30" cy="60" r="4.5">
      <animate attributeName="r" values="3.5;5.5;3.5" dur="2s" repeatCount="indefinite"/>
    </circle>
    <circle cx="110" cy="60" r="3.5">
      <animate attributeName="r" values="2.5;4.5;2.5" dur="2.3s" repeatCount="indefinite"/>
    </circle>
    <circle cx="110" cy="105" r="3"/>
    <circle cx="130" cy="90" r="3.5">
      <animate attributeName="r" values="2.5;4.5;2.5" dur="1.8s" repeatCount="indefinite"/>
    </circle>
    <circle cx="260" cy="90" r="4.5">
      <animate attributeName="r" values="3.5;5.5;3.5" dur="2s" repeatCount="indefinite"/>
    </circle>
    <circle cx="180" cy="155" r="3"/>
    <circle cx="180" cy="175" r="4.5">
      <animate attributeName="r" values="3.5;5.5;3.5" dur="2.5s" repeatCount="indefinite"/>
    </circle>
    <circle cx="260" cy="160" r="3"/>
    <circle cx="220" cy="220" r="4">
      <animate attributeName="r" values="3;5;3" dur="2s" repeatCount="indefinite"/>
    </circle>
    <circle cx="340" cy="220" r="3.5">
      <animate attributeName="r" values="2.5;4.5;2.5" dur="1.5s" repeatCount="indefinite"/>
    </circle>
    <circle cx="55" cy="175" r="3"/>
    <circle cx="30" cy="175" r="3.5">
      <animate attributeName="r" values="2.5;4.5;2.5" dur="2.8s" repeatCount="indefinite"/>
    </circle>
    <circle cx="340" cy="60" r="3"/>
  </g>
  
  <g transform="translate(40,95)">
    <rect width="75" height="55" rx="4" fill="#161b22" stroke="#ffd700" stroke-width="1.5"/>
    <rect x="5" y="5" width="65" height="40" rx="2" fill="#0d1117"/>
    <line x1="10" y1="15" x2="40" y2="15" stroke="#58a6ff" stroke-width="2.5">
      <animate attributeName="x2" values="10;45;10" dur="1.5s" repeatCount="indefinite"/>
    </line>
    <line x1="10" y1="25" x2="55" y2="25" stroke="#7ee787" stroke-width="2.5">
      <animate attributeName="x2" values="10;55;10" dur="2s" repeatCount="indefinite"/>
    </line>
    <line x1="10" y1="35" x2="35" y2="35" stroke="#ffa657" stroke-width="2.5">
      <animate attributeName="x2" values="10;40;10" dur="1.8s" repeatCount="indefinite"/>
    </line>
    <rect x="30" y="55" width="15" height="10" fill="#161b22"/>
    <rect x="24" y="65" width="27" height="5" rx="2" fill="#161b22"/>
  </g>
  
  <g transform="translate(275,40)">
    <rect width="65" height="90" rx="5" fill="#161b22" stroke="#ffd700" stroke-width="1.5"/>
    <circle cx="20" cy="25" r="4" fill="#7ee787">
      <animate attributeName="fill" values="#7ee787;#333;#7ee787" dur="1s" repeatCount="indefinite"/>
    </circle>
    <circle cx="35" cy="25" r="4" fill="#ffa657">
      <animate attributeName="fill" values="#ffa657;#333;#ffa657" dur="1.5s" repeatCount="indefinite"/>
    </circle>
    <circle cx="50" cy="25" r="4" fill="#58a6ff">
      <animate attributeName="fill" values="#58a6ff;#333;#58a6ff" dur="2s" repeatCount="indefinite"/>
    </circle>
    <line x1="10" y1="40" x2="60" y2="40" stroke="#30363d" stroke-width="1"/>
    <rect x="10" y="48" width="50" height="6" rx="2" fill="#30363d"/>
    <rect x="10" y="60" width="50" height="6" rx="2" fill="#30363d"/>
    <rect x="10" y="72" width="50" height="6" rx="2" fill="#30363d"/>
  </g>
  
  <g transform="translate(195,125)">
    <g>
      <animateTransform attributeName="transform" type="rotate" values="0 30 30;360 30 30" dur="10s" repeatCount="indefinite"/>
      <circle cx="30" cy="30" r="18" fill="none" stroke="#ffd700" stroke-width="3"/>
      <circle cx="30" cy="30" r="8" fill="#ffd700" opacity="0.2"/>
      <rect x="26" y="2" width="8" height="12" rx="2" fill="#ffd700"/>
      <rect x="26" y="46" width="8" height="12" rx="2" fill="#ffd700"/>
      <rect x="2" y="26" width="12" height="8" rx="2" fill="#ffd700"/>
      <rect x="46" y="26" width="12" height="8" rx="2" fill="#ffd700"/>
    </g>
  </g>
  
  <g transform="translate(30,235)">
    <ellipse cx="35" cy="12" rx="28" ry="9" fill="#161b22" stroke="#ffd700" stroke-width="1.5"/>
    <rect x="7" y="12" width="56" height="35" fill="#161b22" stroke="#ffd700" stroke-width="1.5"/>
    <ellipse cx="35" cy="47" rx="28" ry="9" fill="#161b22" stroke="#ffd700" stroke-width="1.5"/>
    <line x1="7" y1="28" x2="63" y2="28" stroke="#ffd700" stroke-width="1" opacity="0.5"/>
    <circle cx="22" cy="20" r="3" fill="#58a6ff" opacity="0.7">
      <animate attributeName="opacity" values="0.3;1;0.3" dur="1.5s" repeatCount="indefinite"/>
    </circle>
    <circle cx="35" cy="20" r="3" fill="#7ee787" opacity="0.7">
      <animate attributeName="opacity" values="0.3;1;0.3" dur="2s" repeatCount="indefinite"/>
    </circle>
    <circle cx="48" cy="20" r="3" fill="#ffa657" opacity="0.7">
      <animate attributeName="opacity" values="0.3;1;0.3" dur="1.8s" repeatCount="indefinite"/>
    </circle>
  </g>
  
  <g transform="translate(320,165)">
    <rect width="40" height="65" rx="6" fill="#161b22" stroke="#ffd700" stroke-width="1.5"/>
    <rect x="5" y="10" width="30" height="40" rx="3" fill="#0d1117"/>
    <rect x="8" y="15" width="10" height="10" rx="2" fill="#58a6ff" opacity="0.6">
      <animate attributeName="opacity" values="0.4;0.9;0.4" dur="2s" repeatCount="indefinite"/>
    </rect>
    <rect x="22" y="15" width="10" height="10" rx="2" fill="#7ee787" opacity="0.6">
      <animate attributeName="opacity" values="0.4;0.9;0.4" dur="2.5s" repeatCount="indefinite"/>
    </rect>
    <rect x="8" y="29" width="10" height="10" rx="2" fill="#ffa657" opacity="0.6">
      <animate attributeName="opacity" values="0.4;0.9;0.4" dur="1.8s" repeatCount="indefinite"/>
    </rect>
    <rect x="22" y="29" width="10" height="10" rx="2" fill="#f778ba" opacity="0.6">
      <animate attributeName="opacity" values="0.4;0.9;0.4" dur="3s" repeatCount="indefinite"/>
    </rect>
    <circle cx="20" cy="58" r="3.5" fill="none" stroke="#ffd700" stroke-width="1"/>
    <rect x="14" y="5" width="12" height="3" rx="1.5" fill="#30363d"/>
  </g>
  
  <g transform="translate(150,30)">
    <ellipse cx="28" cy="15" rx="20" ry="11" fill="#161b22" stroke="#ffd700" stroke-width="1"/>
    <ellipse cx="12" cy="18" rx="14" ry="10" fill="#161b22" stroke="#ffd700" stroke-width="1"/>
    <ellipse cx="44" cy="18" rx="14" ry="10" fill="#161b22" stroke="#ffd700" stroke-width="1"/>
    <rect x="0" y="15" width="56" height="12" fill="#0d1117"/>
    <ellipse cx="28" cy="15" rx="18" ry="9" fill="#161b22"/>
    <path d="M25 22 L28 14 L31 22 M28 14 L28 28" stroke="#ffd700" stroke-width="1.5" fill="none">
      <animate attributeName="opacity" values="0.4;1;0.4" dur="2s" repeatCount="indefinite"/>
    </path>
  </g>
  
  <g transform="translate(145,80)">
    <path d="M0 15 Q10 0 20 15" stroke="#ffd700" stroke-width="2" fill="none" opacity="0.4">
      <animate attributeName="opacity" values="0.2;0.8;0.2" dur="1.5s" repeatCount="indefinite"/>
    </path>
    <path d="M4 12 Q10 4 16 12" stroke="#ffd700" stroke-width="2" fill="none" opacity="0.6">
      <animate attributeName="opacity" values="0.3;0.9;0.3" dur="1.5s" begin="0.3s" repeatCount="indefinite"/>
    </path>
    <path d="M7 9 Q10 6 13 9" stroke="#ffd700" stroke-width="2" fill="none" opacity="0.8">
      <animate attributeName="opacity" values="0.4;1;0.4" dur="1.5s" begin="0.6s" repeatCount="indefinite"/>
    </path>
    <circle cx="10" cy="16" r="2.5" fill="#ffd700"/>
  </g>
  
  <g font-family="monospace" font-size="9" fill="#ffd700" opacity="0.2">
    <text x="130" y="295">01001010<animate attributeName="opacity" values="0.1;0.4;0.1" dur="3s" repeatCount="indefinite"/></text>
    <text x="230" y="305">11010011<animate attributeName="opacity" values="0.1;0.4;0.1" dur="2.5s" repeatCount="indefinite"/></text>
    <text x="310" y="295">10110100<animate attributeName="opacity" values="0.1;0.4;0.1" dur="3.5s" repeatCount="indefinite"/></text>
  </g>
</svg>
